<?xml version="1.0" standalone="no"?>
<svg viewBox="0 0 1200 1200" xmlns="http://www.w3.org/2000/svg" xmlns:xlink="http://www.w3.org/1999/xlink">
<g id="um-canvas"><rect id="um-canvas-background" x="0" y="0" width="1200" height="1200" fill="transparent"></rect><g id="um-map" transform="translate(0,0),scale(1,1)"><rect id="um-map-background" x="0" y="0" width="1200" height="1200" fill="#ffffff00" stroke="#ffffff00" stroke-width="1" stroke-opacity="1"></rect><path d="M623.365,1062.306L618.957,1077.729L558.119,1048.344L555.474,1019.664L540.485,943.769L518.442,921.624L587.215,863.959L623.365,891.329L632.182,926.793L633.946,952.623L587.215,1015.248Z" id="45053" class="region" fill="#F8F4E3" stroke="transparent" stroke-width="0"></path><path d="M623.365,1062.306L587.215,1015.248L633.946,952.623L641.881,992.425L671.859,1024.078ZM704.482,920.885L730.933,979.164L682.439,1008.624L651.58,980.638L632.182,926.793L623.365,891.329L634.827,878.017L670.096,887.632Z" id="45013" class="region" fill="#F8F4E3" stroke="transparent" stroke-width="0"></path><path d="M749.449,929.008L704.482,920.885L670.096,887.632L634.827,878.017L570.463,781.682L646.289,733.382L650.698,733.382L690.375,766.83L739.75,769.801L740.632,832.116L727.406,860.259Z" id="45029" class="region" fill="#F8F4E3" stroke="transparent" stroke-width="0"></path><path d="M755.621,940.818L749.449,929.008L727.406,860.259L740.632,832.116L802.351,843.969L821.749,811.361L804.115,783.167L849.963,827.67L852.608,832.857L856.135,834.339L870.242,883.195L772.373,934.913ZM1007.788,743.049L995.445,784.651L946.069,785.393L906.392,849.894L869.361,833.598L931.962,752.713L978.692,720.735Z" id="45019" class="region" fill="#F8F4E3" stroke="transparent" stroke-width="0"></path><path d="M869.361,833.598L856.135,834.339L852.608,832.857L849.963,827.67L804.115,783.167L761.793,743.792L751.212,712.548L777.663,699.891L782.954,650.695L819.104,638.008L856.135,645.471L923.145,697.657L978.692,720.735L931.962,752.713Z" id="45015" class="region" fill="#F8F4E3" stroke="transparent" stroke-width="0"></path><path d="M1092.432,618.592L1059.809,664.867L1042.175,731.894L1007.788,743.049L978.692,720.735L923.145,697.657L983.101,617.845L1013.96,558.012L1045.702,578.969Z" id="45043" class="region" fill="#F8F4E3" stroke="transparent" stroke-width="0"></path><path d="M1200,524.295L1125.937,578.221L1092.432,618.592L1045.702,578.969L1006.907,495.038L1060.691,412.337L1074.798,397.272L1075.68,397.272L1177.957,501.792Z" id="45051" class="region" fill="#F8F4E3" stroke="transparent" stroke-width="0"></path><path d="M0,273.4L11.462,239.305L60.838,184.656L87.289,177.056L115.503,167.173L114.622,262.798L129.611,299.887L91.697,342.209L77.59,338.433L64.364,323.324L4.409,280.214Z" id="45073" class="region" fill="#F8F4E3" stroke="transparent" stroke-width="0"></path><path d="M149.008,400.286L125.202,349.004L91.697,342.209L129.611,299.887L219.544,239.305L234.533,317.278L260.103,342.964L154.298,425.888Z" id="45007" class="region" fill="#F8F4E3" stroke="transparent" stroke-width="0"></path><path d="M192.212,483.776L154.298,425.888L260.103,342.964L280.382,364.098L256.576,385.214L277.737,422.125L258.339,469.504Z" id="45001" class="region" fill="#F8F4E3" stroke="transparent" stroke-width="0"></path><path d="M196.62,498.79L192.212,483.776L258.339,469.504L327.994,503.293L294.489,572.235L311.242,612.615L281.264,577.473L248.641,536.288Z" id="45065" class="region" fill="#F8F4E3" stroke="transparent" stroke-width="0"></path><path d="M333.284,626.061L311.242,612.615L294.489,572.235L327.994,503.293L337.693,500.291L427.627,545.279L336.811,630.542Z" id="45037" class="region" fill="#F8F4E3" stroke="transparent" stroke-width="0"></path><path d="M336.811,630.542L427.627,545.279L447.906,525.794L484.938,562.504L546.657,599.162L501.69,638.754L398.53,733.382L378.251,711.804Z" id="45003" class="region" fill="#F8F4E3" stroke="transparent" stroke-width="0"></path><path d="M436.444,762.372L398.53,733.382L501.69,638.754L537.84,655.171L542.248,754.199L454.96,742.306Z" id="45011" class="region" fill="#F8F4E3" stroke="transparent" stroke-width="0"></path><path d="M452.314,774.999L436.444,762.372L454.96,742.306L542.248,754.199L570.463,781.682L536.076,803.944L525.496,838.044L490.228,866.18Z" id="45005" class="region" fill="#F8F4E3" stroke="transparent" stroke-width="0"></path><path d="M494.636,909.805L490.228,866.18L525.496,838.044L536.076,803.944L570.463,781.682L634.827,878.017L623.365,891.329L587.215,863.959L518.442,921.624Z" id="45049" class="region" fill="#F8F4E3" stroke="transparent" stroke-width="0"></path><path d="M249.522,123.033L285.672,122.271L283.027,227.929L303.306,249.917L260.103,342.964L234.533,317.278L219.544,239.305L202.792,180.096L155.18,160.329L194.857,137.501Z" id="45045" class="region" fill="#F8F4E3" stroke="transparent" stroke-width="0"></path><path d="M285.672,122.271L348.273,125.318L372.079,126.841L412.638,211.236L394.122,233.997L376.488,308.206L303.306,249.917L283.027,227.929Z" id="45083" class="region" fill="#F8F4E3" stroke="transparent" stroke-width="0"></path><path d="M372.079,126.841L399.412,128.364L499.045,133.694L469.067,201.367L477.002,233.239L412.638,211.236Z" id="45021" class="region" fill="#F8F4E3" stroke="transparent" stroke-width="0"></path><path d="M499.045,133.694L509.625,133.694L580.162,140.546L580.162,142.068L615.43,160.329L618.075,239.305L473.475,239.305L477.002,233.239L469.067,201.367Z" id="45091" class="region" fill="#F8F4E3" stroke="transparent" stroke-width="0"></path><path d="M155.18,160.329L202.792,180.096L219.544,239.305L129.611,299.887L114.622,262.798L115.503,167.173Z" id="45077" class="region" fill="#F8F4E3" stroke="transparent" stroke-width="0"></path><path d="M615.43,160.329L632.182,181.616L647.171,237.788L700.073,239.305L739.75,302.156L679.794,339.943L655.107,324.835L621.602,349.759L618.957,324.08L618.075,239.305Z" id="45057" class="region" fill="#F8F4E3" stroke="transparent" stroke-width="0"></path><path d="M700.073,239.305L761.793,240.063L859.662,242.337L884.35,290.052L888.758,333.901L830.566,339.188L770.61,375.412L739.75,302.156Z" id="45025" class="region" fill="#F8F4E3" stroke="transparent" stroke-width="0"></path><path d="M859.662,242.337L924.026,245.37L977.81,296.862L980.456,299.887L932.843,398.779L930.198,398.026L888.758,333.901L884.35,290.052Z" id="45069" class="region" fill="#F8F4E3" stroke="transparent" stroke-width="0"></path><path d="M980.456,299.887L1074.798,397.272L1060.691,412.337L972.52,401.793L953.123,426.641L932.843,398.779Z" id="45033" class="region" fill="#F8F4E3" stroke="transparent" stroke-width="0"></path><path d="M258.339,469.504L277.737,422.125L256.576,385.214L280.382,364.098L357.09,427.394L370.316,443.193L337.693,500.291L327.994,503.293Z" id="45047" class="region" fill="#F8F4E3" stroke="transparent" stroke-width="0"></path><path d="M280.382,364.098L260.103,342.964L303.306,249.917L376.488,308.206L429.39,327.102L357.09,427.394Z" id="45059" class="region" fill="#F8F4E3" stroke="transparent" stroke-width="0"></path><path d="M501.69,638.754L546.657,599.162L580.162,577.473L639.236,608.131L676.267,648.456L718.589,621.58L749.449,650.695L782.954,650.695L777.663,699.891L751.212,712.548L715.944,689.463L650.698,733.382L646.289,733.382L537.84,655.171Z" id="45075" class="region" fill="#F8F4E3" stroke="transparent" stroke-width="0"></path><path d="M447.906,525.794L427.627,545.279L337.693,500.291L370.316,443.193L418.81,434.918L464.658,464.996Z" id="45081" class="region" fill="#F8F4E3" stroke="transparent" stroke-width="0"></path><path d="M546.657,599.162L484.938,562.504L447.906,525.794L464.658,464.996L506.098,428.899L578.398,489.783L590.742,517.546L580.162,577.473Z" id="45063" class="region" fill="#F8F4E3" stroke="transparent" stroke-width="0"></path><path d="M570.463,781.682L542.248,754.199L537.84,655.171L646.289,733.382Z" id="45009" class="region" fill="#F8F4E3" stroke="transparent" stroke-width="0"></path><path d="M412.638,211.236L477.002,233.239L473.475,239.305L486.701,315.01L486.701,339.188L429.39,327.102L376.488,308.206L394.122,233.997Z" id="45087" class="region" fill="#F8F4E3" stroke="transparent" stroke-width="0"></path><path d="M618.075,239.305L618.957,324.08L486.701,315.01L473.475,239.305Z" id="45023" class="region" fill="#F8F4E3" stroke="transparent" stroke-width="0"></path><path d="M486.701,315.01L618.957,324.08L621.602,349.759L656.87,373.904L636.591,407.819L539.603,432.661L513.152,415.349L486.701,339.188Z" id="45039" class="region" fill="#F8F4E3" stroke="transparent" stroke-width="0"></path><path d="M770.61,375.412L830.566,339.188L888.758,333.901L930.198,398.026L909.919,399.533L832.329,460.486L797.943,378.428L770.61,376.92Z" id="45031" class="region" fill="#F8F4E3" stroke="transparent" stroke-width="0"></path><path d="M739.75,302.156L770.61,375.412L770.61,376.92L736.223,399.533L721.234,437.928L684.203,458.983L661.278,468.001L623.365,433.414L636.591,407.819L656.87,373.904L621.602,349.759L655.107,324.835L679.794,339.943Z" id="45055" class="region" fill="#F8F4E3" stroke="transparent" stroke-width="0"></path><path d="M872.888,523.545L842.91,558.761L819.104,638.008L782.954,650.695L749.449,650.695L718.589,621.58L704.482,592.433L848.2,504.794Z" id="45027" class="region" fill="#F8F4E3" stroke="transparent" stroke-width="0"></path><path d="M819.104,638.008L842.91,558.761L872.888,523.545L968.112,556.514L1016.605,549.025L1013.96,558.012L983.101,617.845L923.145,697.657L856.135,645.471Z" id="45089" class="region" fill="#F8F4E3" stroke="transparent" stroke-width="0"></path><path d="M704.482,592.433L718.589,621.58L676.267,648.456L639.236,608.131L580.162,577.473L590.742,517.546L597.796,536.288L683.321,564.75Z" id="45017" class="region" fill="#F8F4E3" stroke="transparent" stroke-width="0"></path><path d="M848.2,504.794L704.482,592.433L683.321,564.75L684.203,458.983L721.234,437.928L797.061,503.293L850.845,477.017Z" id="45085" class="region" fill="#F8F4E3" stroke="transparent" stroke-width="0"></path><path d="M872.888,523.545L848.2,504.794L850.845,477.017L832.329,460.486L909.919,399.533L930.198,398.026L932.843,398.779L953.123,426.641L964.585,492.035L1016.605,549.025L968.112,556.514Z" id="45041" class="region" fill="#F8F4E3" stroke="transparent" stroke-width="0"></path><path d="M770.61,376.92L797.943,378.428L832.329,460.486L850.845,477.017L797.061,503.293L721.234,437.928L736.223,399.533Z" id="45061" class="region" fill="#F8F4E3" stroke="transparent" stroke-width="0"></path><path d="M953.123,426.641L972.52,401.793L1060.691,412.337L1006.907,495.038L1045.702,578.969L1013.96,558.012L1016.605,549.025L964.585,492.035Z" id="45067" class="region" fill="#F8F4E3" stroke="transparent" stroke-width="0"></path><path d="M751.212,712.548L761.793,743.792L804.115,783.167L821.749,811.361L802.351,843.969L740.632,832.116L739.75,769.801L690.375,766.83L650.698,733.382L715.944,689.463Z" id="45035" class="region" fill="#F8F4E3" stroke="transparent" stroke-width="0"></path><path d="M513.152,415.349L539.603,432.661L636.591,407.819L623.365,433.414L661.278,468.001L684.203,458.983L683.321,564.75L597.796,536.288L590.742,517.546L578.398,489.783L506.098,428.899Z" id="45079" class="region" fill="#F8F4E3" stroke="transparent" stroke-width="0"></path><path d="M486.701,339.188L513.152,415.349L506.098,428.899L464.658,464.996L418.81,434.918L370.316,443.193L357.09,427.394L429.39,327.102Z" id="45071" class="region" fill="#F8F4E3" stroke="transparent" stroke-width="0"></path><path d="M518.442,921.624L587.215,863.959L623.365,891.329L632.182,926.793M633.946,952.623L587.215,1015.248L623.365,1062.306M623.365,891.329L634.827,878.017L670.096,887.632L704.482,920.885M634.827,878.017L570.463,781.682L646.289,733.382L650.698,733.382L690.375,766.83L739.75,769.801L740.632,832.116L727.406,860.259L749.449,929.008M740.632,832.116L802.351,843.969L821.749,811.361L804.115,783.167L849.963,827.67M852.608,832.857L856.135,834.339M869.361,833.598L931.962,752.713L978.692,720.735L1007.788,743.049M804.115,783.167L761.793,743.792L751.212,712.548L777.663,699.891L782.954,650.695L819.104,638.008L856.135,645.471L923.145,697.657L978.692,720.735M923.145,697.657L983.101,617.845L1013.96,558.012L1045.702,578.969L1092.432,618.592M1045.702,578.969L1006.907,495.038L1060.691,412.337L1074.798,397.272M115.503,167.173L114.622,262.798L129.611,299.887L91.697,342.209M129.611,299.887L219.544,239.305L234.533,317.278L260.103,342.964L154.298,425.888M285.672,122.271L283.027,227.929L303.306,249.917L260.103,342.964L280.382,364.098L256.576,385.214L277.737,422.125L258.339,469.504L192.212,483.776M258.339,469.504L327.994,503.293L294.489,572.235L311.242,612.615M327.994,503.293L337.693,500.291L427.627,545.279L336.811,630.542M427.627,545.279L447.906,525.794L484.938,562.504L546.657,599.162L501.69,638.754L398.53,733.382M501.69,638.754L537.84,655.171L542.248,754.199L454.96,742.306L436.444,762.372M542.248,754.199L570.463,781.682L536.076,803.944L525.496,838.044L490.228,866.18M219.544,239.305L202.792,180.096L155.18,160.329M372.079,126.841L412.638,211.236L394.122,233.997L376.488,308.206L303.306,249.917M499.045,133.694L469.067,201.367L477.002,233.239L412.638,211.236M615.43,160.329L618.075,239.305L473.475,239.305L477.002,233.239M700.073,239.305L739.75,302.156L679.794,339.943L655.107,324.835L621.602,349.759L618.957,324.08L618.075,239.305M859.662,242.337L884.35,290.052L888.758,333.901L830.566,339.188L770.61,375.412L739.75,302.156M980.456,299.887L932.843,398.779L930.198,398.026L888.758,333.901M1060.691,412.337L972.52,401.793L953.123,426.641L932.843,398.779M280.382,364.098L357.09,427.394L370.316,443.193L337.693,500.291M376.488,308.206L429.39,327.102L357.09,427.394M546.657,599.162L580.162,577.473L639.236,608.131L676.267,648.456L718.589,621.58L749.449,650.695L782.954,650.695M751.212,712.548L715.944,689.463L650.698,733.382M646.289,733.382L537.84,655.171M370.316,443.193L418.81,434.918L464.658,464.996L447.906,525.794M464.658,464.996L506.098,428.899L578.398,489.783L590.742,517.546L580.162,577.473M473.475,239.305L486.701,315.01L486.701,339.188L429.39,327.102M618.957,324.08L486.701,315.01M621.602,349.759L656.87,373.904L636.591,407.819L539.603,432.661L513.152,415.349L486.701,339.188M930.198,398.026L909.919,399.533L832.329,460.486L797.943,378.428L770.61,376.92L770.61,375.412M770.61,376.92L736.223,399.533L721.234,437.928L684.203,458.983L661.278,468.001L623.365,433.414L636.591,407.819M718.589,621.58L704.482,592.433L848.2,504.794L872.888,523.545L842.91,558.761L819.104,638.008M872.888,523.545L968.112,556.514L1016.605,549.025L1013.96,558.012M590.742,517.546L597.796,536.288L683.321,564.75L704.482,592.433M683.321,564.75L684.203,458.983M721.234,437.928L797.061,503.293L850.845,477.017L848.2,504.794M850.845,477.017L832.329,460.486M953.123,426.641L964.585,492.035L1016.605,549.025M506.098,428.899L513.152,415.349" class="region-boundary" pointer-events="none" fill="transparent" stroke="#CCCCCC" stroke-width="1" stroke-opacity="1" stroke-linejoin="bevel"></path><path d="M494.636,909.805L490.228,866.18L452.314,774.999L436.444,762.372L398.53,733.382L378.251,711.804L336.811,630.542L333.284,626.061L311.242,612.615L281.264,577.473L248.641,536.288L196.62,498.79L192.212,483.776L154.298,425.888L149.008,400.286L125.202,349.004L91.697,342.209L77.59,338.433L64.364,323.324L4.409,280.214L0,273.4L11.462,239.305L60.838,184.656L87.289,177.056L115.503,167.173L155.18,160.329L194.857,137.501L249.522,123.033L285.672,122.271L348.273,125.318L372.079,126.841L399.412,128.364L499.045,133.694L509.625,133.694L580.162,140.546L580.162,142.068L615.43,160.329L632.182,181.616L647.171,237.788L700.073,239.305L761.793,240.063L859.662,242.337L924.026,245.37L977.81,296.862L980.456,299.887L1074.798,397.272L1075.68,397.272L1177.957,501.792L1200,524.295L1125.937,578.221L1092.432,618.592L1059.809,664.867L1042.175,731.894L1007.788,743.049L995.445,784.651L946.069,785.393L906.392,849.894L869.361,833.598L856.135,834.339L870.242,883.195L772.373,934.913L755.621,940.818L749.449,929.008L704.482,920.885L730.933,979.164L682.439,1008.624L651.58,980.638L632.182,926.793L633.946,952.623L641.881,992.425L671.859,1024.078L623.365,1062.306L618.957,1077.729L558.119,1048.344L555.474,1019.664L540.485,943.769L518.442,921.624ZM849.963,827.67L852.608,832.857L849.963,827.67Z" class="boundary" pointer-events="none" fill="transparent" stroke="#777777" stroke-width="2" stroke-opacity="1" stroke-linejoin="bevel"></path><g id="um-map-labels"></g><g id="um-map-locations"></g></g><g id="um-user-layers"></g></g><defs></defs>
</svg>